<?xml version="1.0" encoding="utf-8"?>
<!-- Generator: Adobe Illustrator 24.0.2, SVG Export Plug-In . SVG Version: 6.00 Build 0)  -->
<svg version="1.1" xmlns="http://www.w3.org/2000/svg" xmlns:xlink="http://www.w3.org/1999/xlink" x="0px" y="0px"
	 viewBox="0 0 386.53 559.67" style="enable-background:new 0 0 386.53 559.67;" xml:space="preserve">
<g id="Calque_2">
</g>
<g id="Calque_1">
	<g>
		<g>
			<g>
				<path d="M23,99.62c-7.47,61.42-6.42,123.7-18.18,184.59c3.22-0.42,6.44-0.84,9.66-1.26c-5.43-9.39-2.46-23.04-3.04-33.44
					c-0.85-15.23-0.53-30.51-0.93-45.75c-0.39-15-1.4-29.98-1.31-44.98c0.04-6.43,0.25-12.85,0.28-19.28
					c0.03-5.64-0.12-11.93,2.31-17.16c-2.61,0-5.22,0-7.82,0c5.85,9.91,7.86,21.67,10.25,32.79c2.66,12.37,6.19,24.43,9.79,36.56
					c7.87,26.55,16.53,52.77,25.96,78.81c9.43,26.04,18.43,52.23,28.29,78.12c4.97,13.04,8.43,27.49,16.66,38.97
					c3.47,4.84,8.35,9.08,14.7,7.16c5.95-1.8,9.05-7.91,11.11-13.29c4.83-12.62,5.31-26.93,6.02-40.28
					c0.47-8.88,1.82-17.7,2.66-26.55c1.29-13.7,2.29-27.42,3.21-41.14c1.87-27.96,3.22-55.94,5.94-83.84
					c3-30.73,7.25-61.32,13.09-91.64c5.89-30.58,13.72-60.74,21.25-90.94c1.83-7.35-8.52-9.9-11.14-3.07
					c-18.84,49.18-27.68,102.27-34.15,154.34c-6.61,53.26-7.35,106.77-11.48,160.21c-1.09,14.05-1.35,28.22-2.67,42.24
					c-0.6,6.41-1.24,13.38-3.78,19.37c-0.69,1.61-2.09,3.29-2.65,4.06c-0.35,0.49-1.21,0.15-0.11,0.44
					c-0.61-0.16-0.74-0.26-1.51-1.1c-8.47-9.24-11.46-23.69-15.67-35.18c-8.86-24.18-17.79-48.32-26.55-72.54
					c-10.19-28.17-19.97-56.39-28.77-85.03c-3.9-12.7-7.78-25.34-10.7-38.31c-2.69-11.99-5.67-24.04-11.93-34.74
					c-1.6-2.73-6.34-3.16-7.82,0c-5.26,11.21-3.65,25.1-3.91,37.18c-0.36,16.28,0.72,32.55,1.09,48.82
					c0.37,16.32,0.58,32.66,0.74,48.98c0.12,11.78-2.49,24.71,3.45,35.55c2.04,3.72,8.91,3.32,9.66-1.26
					c10.19-61.99,8.61-125.08,15.46-187.4C31.01,94.83,23.58,94.92,23,99.62L23,99.62z"/>
			</g>
		</g>
		<g>
			<g>
				<path d="M161.32,102.69c-4.98,33.19-4.99,66.75-5.59,100.23c-0.62,34.27-3,68.46-3.61,102.74c-0.32,18.12,2.09,36.45,0.41,54.52
					c-0.59,6.42,7.85,7.05,10.89,2.95c4.43-5.98,5.17-13.51,6.05-20.66c1.08-8.82,2.96-17.58,4.58-26.32
					c3.5-18.83,7.5-37.56,11.07-56.37c3.48-18.39,6.97-36.79,11.52-54.96c4.56-18.22,9.74-36.32,14.84-54.39
					c5.75-20.38,11.33-41.1,18.96-60.88c-3.93-0.53-7.85-1.06-11.78-1.59c-0.8,17.26-7.45,34.44-11.8,51.05
					c-4.85,18.49-10.69,36.69-16.3,54.95c-5.76,18.72-12.31,37.19-18.47,55.77c-2.86,8.62-5.44,17.31-8.6,25.82
					c-3.2,8.65-6.2,17.2-6.4,26.53c-0.14,6.94,9.29,11.2,14.11,5.84c5.47-6.07,7.55-14.23,11.24-21.36
					c1.21-2.34,3.04-5.78,5.63-6.91c1.68-0.73,2.92-0.11,3.95,0.75c4.7,3.89,6.72,11.39,8.38,16.97c2.13,7.16,3.55,14.53,4.9,21.87
					c3.86,21.04,10.1,41.61,15.13,62.39c6.51,26.86,13.12,53.65,21.2,80.09c4.4,14.38,9,28.73,14.42,42.77
					c2.8,7.23,6.04,14.43,9.47,21.38c1.69,3.42,4.02,6.26,6.2,9.36c2.52,3.58,4.54,7.49,6.74,11.28c3.29,5.69,12.97,1.94,10.82-4.56
					c-1.14-3.44-2.66-7-3.42-10.55c-0.79-3.73-0.95-7.57-1.94-11.27c-1.92-7.18-4.54-14.38-6.99-21.4
					c-4.75-13.62-9.6-27.2-14.06-40.92c-8.92-27.46-17.37-55.11-25.6-82.78c-6.33-21.29-12.89-42.52-18.37-64.04
					c-3.58-14.06-7.76-32.57-20.45-41.36c-7.59-5.25-16.82-3.15-22.89,3.4c-6.38,6.87-10.15,17.19-16.07,23.2
					c4.7,1.95,9.4,3.9,14.11,5.84c0.57-8.71,4.15-17.19,6.94-25.37c2.98-8.73,5.2-17.7,7.73-26.57
					c5.36-18.78,10.94-37.5,16.49-56.22c5.43-18.31,11.04-36.59,15.55-55.16c4.02-16.56,10.75-33.56,10.32-50.81
					c-0.17-6.78-9.78-8.11-11.78-1.59c-5.38,17.58-11.2,34.99-16.23,52.68c-4.96,17.44-9.65,34.96-14.37,52.46
					c-9.66,35.85-15.38,72.75-22.62,109.14c-2.1,10.58-4.14,21.17-6.1,31.78c-1.32,7.12-0.68,17.69-5.32,23.61
					c3.32,1.38,6.65,2.75,9.97,4.13c1.93-16.15,0.74-32.1,0.66-48.3c-0.08-16.8,0.71-33.63,1.19-50.42
					c0.48-16.98,1.44-33.92,1.58-50.91c0.14-16.58-0.09-33.15,0.12-49.73c0.24-18.98,1.08-37.95,3.57-56.78
					C172.07,98.41,162.17,97.01,161.32,102.69L161.32,102.69z"/>
			</g>
		</g>
		<g>
			<g>
				<path d="M273.59,50.91c-0.03-2.49-0.13-4.95-0.34-7.43c-0.44-5.22-7.89-5.32-8.19,0c-1.05,18.62-0.62,37.44-1.08,56.1
					c-0.47,18.78-1.12,37.56-1.32,56.35c-0.2,18.57-0.93,37.21-0.13,55.78c0.6,13.95,2.38,27.72,4.6,41.43
					c1.72,10.6,4.76,22.43,13.43,29.55c10.78,8.86,24.12,5.51,33.63-3.38c9.99-9.33,17.38-22.5,23.9-34.33
					c7.92-14.38,14.26-29.59,19.53-45.13c13.02-38.35,17.72-78.53,28.7-117.37c1.62-5.73-7.35-9.91-9.9-4.17
					c-5.69,12.83-7.98,26.53-10.29,40.27c-2.66,15.85-5.95,31.63-8.84,47.45c-2.99,16.4-5.72,32.85-8.59,49.28
					c-2.86,16.34-6.43,32.53-9.73,48.79c-6.46,31.83-12.92,63.65-20.32,95.27c-7.23,30.93-16.13,61.42-24.22,92.13
					c-4.37,16.57-8.54,33.19-12.9,49.77c-4.37,16.61-8.69,33.22-15.09,49.18c-3.14,7.84,9.65,13.05,13.57,5.72
					c7.19-13.44,14.03-27.31,19.37-41.59c5.39-14.41,9.52-29.14,13.75-43.92c8.63-30.15,16.52-60.77,23.2-91.41
					c14.01-64.23,24.33-129.52,33.32-194.62c2.56-18.52,5.38-36.98,8.57-55.41c2.69-15.53,2.95-31.74,8.1-46.74
					c-3.48-0.96-6.96-1.92-10.45-2.88c-13.17,61.71-22.99,126.86-61.38,179.02c-4.51,6.13-14.18,19.48-23.25,14.27
					c-7.43-4.27-9.1-16.59-10.4-24.13c-2.16-12.57-3.92-25.29-4.58-38.02c-0.89-17.26-0.45-34.57-0.53-51.84
					c-0.1-19.44,0.39-38.88,0.43-58.32c0.04-19.22,0.24-39.18-3.08-58.17c-2.63,0.73-5.26,1.45-7.9,2.18
					c0.73,2.39,1.34,4.79,1.9,7.22C267.94,55.43,273.64,54.61,273.59,50.91L273.59,50.91z"/>
			</g>
		</g>
	</g>
</g>
</svg>
