<?xml version="1.0" encoding="utf-8"?>
<!-- Generator: Adobe Illustrator 24.0.2, SVG Export Plug-In . SVG Version: 6.00 Build 0)  -->
<svg version="1.1" xmlns="http://www.w3.org/2000/svg" xmlns:xlink="http://www.w3.org/1999/xlink" x="0px" y="0px"
	 viewBox="0 0 585.05 503.87" style="enable-background:new 0 0 585.05 503.87;" xml:space="preserve">
<style type="text/css">
	.st0{fill:#F3910C;}
	.st1{fill:#010202;}
</style>
<g id="Calque_2">
</g>
<g id="Calque_1">
	<g>
		<circle class="st0" cx="227.69" cy="227.69" r="227.69"/>
		<g>
			<g>
				<g>
					<path class="st1" d="M65.9,86.66c-14.42,42.72-7.04,87.7-8.91,131.73c2.36,0,4.73,0,7.09,0c-0.78-23.8-2.43-47.84-4.39-71.57
						c-0.62-7.53-1.54-15.03-1.71-22.59c-0.15-6.79-0.56-16.29,4.29-21.74c-2-0.53-4-1.06-5.99-1.58
						c10.19,27.26,18.88,55.05,29.28,82.24c7.37,19.28,14.62,41.08,31.57,54.16c1.11,0.86,3.05,0.69,4.18,0
						c7.88-4.83,8.28-16.32,8.36-24.55c0.13-12.01-1.21-24.18-2.12-36.14c-2.34-31.03-5.85-62.8,0.83-93.54
						c3.43-15.8,9.26-31.3,16.64-45.66c1.56-3.04-2.37-6.5-4.91-3.79c-19.15,20.38-24.93,49.28-26.32,76.38
						c-1.55,30.15,2.64,60.88,5.81,90.82c0.57,5.34,1.17,10.71,1.18,16.09c0.01,3.92,0.24,10.85-3.65,13.25c1.39,0,2.79,0,4.18,0
						c-15.93-12.26-22.35-35-29.41-52.92C81.7,151.4,72.94,125.02,63.19,99.01c-0.88-2.34-4.05-3.77-5.99-1.58
						c-10.36,11.64-6.3,32.36-4.99,46.38c2.31,24.78,2.91,49.76,4.78,74.59c0.34,4.51,7.38,4.58,7.09,0
						c-1.35-21.78-2.66-43.61-2.72-65.45c-0.06-22,1.47-44.2,8.2-65.27C70.31,85.33,66.68,84.36,65.9,86.66L65.9,86.66z"/>
				</g>
			</g>
			<g>
				<g>
					<path class="st1" d="M142.52,180c4.56,9.62,14.12,4.02,19.19-1.68c6.6-7.42,11.57-16.27,16.04-25.1
						c3.15-6.23,5.78-12.79,8.05-19.39c2.9-8.39,7.58-20.14,4.71-29.09c-1.26-3.93-4.74-6.38-8.87-6.07
						c-5.12,0.39-8.71,5.06-11.3,9.01c-6.81,10.37-10.77,22.8-15.5,33.98c-6,14.19-11.02,29.05-11.39,44.59
						c-0.22,9.49,0.67,22.34,9.01,28.52c12.97,9.61,29.86-6.5,37.53-15.93c11.73-14.41,18.2-31.93,23.64-49.5
						c0.53-1.71-2.18-2.93-2.96-1.25c-5.58,12.14-11.84,23.82-19.69,34.67c-4.08,5.63-8.64,10.9-13.96,15.41
						c-3.95,3.34-9.56,7.75-14.86,8.52c-6.84,0.98-8.16-9.35-8.72-14.27c-1.18-10.27,0.09-20.25,2.9-30.16
						c3.44-12.15,8.58-23.78,13.64-35.33c2.1-4.8,4.34-9.61,7.18-14.04c1.04-1.63,2.16-3.23,3.59-4.54c0.46-0.42,1.92-0.93,0.91-1
						c-0.44-0.03,0-0.13,0.07,0.9c0.12,1.7-0.03,3.39-0.29,5.07c-0.66,4.19-1.93,8.31-3.26,12.32c-2.08,6.3-4.79,13.49-7.22,18.88
						c-2.91,6.46-6.45,12.66-10.14,18.7c-2.32,3.79-4.68,7.67-7.8,10.87c-0.86,0.88-2.36,1.98-2.93,2.33
						c-0.75,0.47-0.09-0.28,0.34,0.09c0.74,0.63-0.29-0.89-0.32-0.95C147.51,170.49,140.12,174.94,142.52,180L142.52,180z"/>
				</g>
			</g>
			<g>
				<g>
					<path class="st1" d="M227.62,85.56c-0.28-2.4-0.8-4.65-1.5-6.97c-0.63-2.05-3.38-2.41-4.51-0.59
						c-4.81,7.74-5.52,17.15-7.22,25.9c-2.35,12.14-5.14,24.2-7.19,36.39c-1.92,11.41-3.26,22.95-3.8,34.51
						c-0.44,9.45-2.38,20.53,1.81,29.34c1.07,2.25,4.3,2.83,6.31,1.65c8.36-4.89,11.33-17.07,13.97-25.65
						c4.07-13.24,9.06-26.15,13.83-39.15c5.85-15.93,11.36-32.07,18.99-47.25c7.07-14.07,14.03-27.95,18.71-43.04
						c1.05-3.39-4.38-5.84-5.86-2.47c-9.38,21.38-17.65,43.23-26.82,64.7c-7.73,18.1-12.24,37.29-23.44,53.72
						c2.35,0.99,4.71,1.98,7.06,2.98c0.93-2.91,1.45-5.94,2.35-8.87c0.36-1.17,0.61-0.59-0.27-0.79c0.59,0.13,0.97,0.6,1.26,1.1
						c0.79,1.37,1.24,2.9,1.61,4.44c1.71,7.01,2.66,13.79,5.32,20.6c6.56,16.76,16.83,33.31,32.86,42.38
						c2.95,1.67,6.17-2.31,3.66-4.75c-15.09-14.67-27.49-33.44-33.54-53.71c-1.56-5.23-3.21-14.23-9.25-16.19
						c-7.59-2.46-9,8.04-11.06,12.81c-1.57,3.63,2.98,8.36,6.07,4.68c12.5-14.88,15.22-35.59,22.33-53.16
						c9.02-22.27,17.8-44.68,27.39-66.71c-1.95-0.82-3.91-1.65-5.86-2.47c-4.4,14.34-13.28,27.06-20.24,40.23
						c-7.41,14.03-12.74,28.84-18.21,43.7c-4.86,13.23-10.29,26.4-14.36,39.89c-1.44,4.78-2.83,9.59-4.6,14.26
						c-1.35,3.54-3.08,8.71-6.56,10.75c2.1,0.55,4.2,1.1,6.31,1.65c-1.94-4.07-1.29-9.04-1.1-13.39c0.2-4.72,0.12-9.45,0.33-14.17
						c0.48-10.86,1.64-21.72,2.99-32.5c1.38-11,3.35-21.92,4.98-32.88c1.28-8.61,1.35-18.25,5.51-26.07
						c-1.5-0.2-3.01-0.39-4.51-0.59c0.76,2.07,1.36,4.09,1.71,6.28C223.46,88.73,227.92,88.16,227.62,85.56L227.62,85.56z"/>
				</g>
			</g>
			<g>
				<g>
					<path class="st1" d="M278.26,125.01c0.28-0.4,0.62-0.72,0.86-1.15c1.05-1.9-1-3.59-2.78-2.78c-1.98,0.89-2.4,3.65-3.15,5.5
						c-1.57,3.87-2.72,7.69-3.74,11.75c-1.83,7.27-3.23,14.64-4.14,22.08c-1.61,13.18-1.91,27.7,2.45,40.45
						c3.21,9.38,10.56,19.75,21.91,16.76c10.23-2.7,15.4-14.05,18.3-23.24c3.73-11.79,5.67-24.62,4.73-36.98
						c-0.85-11.21-4.24-24.58-13-32.36c-6.56-5.83-16.92-6.46-22.84,0.68c-6.16,7.42-0.77,15.97,6.81,19.47
						c22.64,10.42,46.7-14.67,61.34-28.67c-2.18-0.9-4.36-1.81-6.54-2.71c-0.43,7.65-4.97,14.9-7.71,21.9
						c-3.93,10-7.11,20.43-10.13,30.74c-2.15,7.33-4.74,14.64-6.33,22.11c-1.37,6.42-2.31,13.91,1.52,19.69
						c1.46,2.21,4.24,2.56,6.22,0.8c7.15-6.37,9.85-16.23,12.47-25.09c3.6-12.17,7.14-24.34,10.3-36.64
						c3.1-12.1,5.94-24.21,8.42-36.45c2.53-12.47,5.12-24.94,9.49-36.92c-2.43-0.67-4.87-1.34-7.3-2.01
						c-2.04,9.44-4.25,18.87-5.46,28.45c-1.17,9.31-1.82,18.65-2.33,28.01c-1.04,19.12-1.01,38.15-0.35,57.28
						c0.61,17.64,1.09,35.32,2.52,52.92c1.44,17.78,3.53,35.12,11.61,51.25c2.3,4.59,10.02,3.55,11.1-1.45
						c1.14-5.32,0.38-10.19-0.75-15.42c-1.3-5.96-2.61-11.74-4.77-17.49c-4.09-10.87-9.46-21.41-15.57-31.29
						c-6.37-10.31-15.26-20.35-26.96-24.49c-3.18-1.12-7.96-2.3-10.21,1.13c-2.34,3.57,0.82,8.68,3.45,11.19
						c7.08,6.76,18.97,7.39,28.15,7.89c13.14,0.73,26.08,0.21,39.1-1.83c34.29-5.39,67.96-15.76,100.05-28.83
						c17.69-7.2,34.66-15.44,51.51-24.4c16.25-8.64,30-21.91,47.03-29.02c2.58-1.08,1.66-5.2-1.2-4.34
						c-13.08,3.93-24.44,11.52-36.31,18.04c-12.54,6.89-25.49,12.95-38.73,18.34c-26.97,10.98-54.41,21.37-82.57,28.92
						c-25.5,6.84-51.25,12.61-77.78,12.63c-4.31,0-8.57-0.23-12.86-0.67c-3.64-0.37-8.48-0.68-11.49-3.09
						c-0.33-0.26-2.05-2.29-1.89-2.3c-0.4,0.65-0.8,1.3-1.21,1.96c0.6-0.01,1.19,0.05,1.78,0.17c1.61,0.57,3.33,0.82,4.95,1.43
						c6.63,2.5,11.85,7.08,16.03,12.71c6.86,9.24,11.72,20.35,15.71,31.08c3.76,10.1,8.63,22.59,3.45,33.01
						c3.7,0.48,7.4,0.97,11.1,1.45c-7.17-32.96-9.21-66.89-12.11-100.42c-1.57-18.09-2.83-36.31-2.84-54.47
						c-0.02-18.59,1.16-38.18,5.17-56.33c1.06-4.81-5.62-6.55-7.3-2.01c-8.28,22.38-11.3,46.55-17.2,69.62
						c-3.06,11.98-6.28,23.91-9.92,35.73c-2.74,8.88-4.61,19.72-11.87,26.16c2.07,0.27,4.15,0.53,6.22,0.8
						c-3.61-5.47-0.83-13.84,0.78-19.59c2.21-7.87,4.57-15.74,7-23.55c2.79-8.96,5.51-18.08,9.2-26.72
						c2.81-6.6,6.13-13.3,6.51-20.58c0.18-3.43-4.25-4.91-6.54-2.71c-11.34,10.91-23.87,23.93-39.48,28.32
						c-3.81,1.07-7.84,1.44-11.68,0.34c-3.13-0.9-7.94-3.14-7.99-7.02c-0.03-2.66,2.37-4.79,4.66-5.68
						c4.12-1.6,8.35,0.17,11.32,3.14c13.82,13.8,10.83,38.75,6.02,55.7c-2.1,7.4-4.91,16.14-10.91,21.36
						c-8.11,7.06-13.86-2.7-16.28-9.73c-3.67-10.67-4.04-22.38-3.33-33.54c0.44-6.89,1.42-13.73,2.76-20.5
						c0.64-3.2,1.38-6.38,2.14-9.55c0.22-0.93,0.38-1.62,0.55-2.5c0.08-0.42,0.7-6.63,1-6.85c-1-0.77-1.99-1.53-2.99-2.3
						c-0.18,0.24-0.32,0.51-0.42,0.8C274,125.31,276.85,127.06,278.26,125.01L278.26,125.01z"/>
				</g>
			</g>
			<g>
				<g>
					<path class="st1" d="M92.08,259.29c0.44-1.48,0.92-2.95,1.4-4.42c-1.69-0.23-3.37-0.46-5.06-0.68
						c-0.9,14.96-3.11,29.51-5.69,44.27c-1.93,11.01-4.06,22.14-4.06,33.37c0,13,1.34,28,7.72,39.58c2.92,5.29,7.68,9.8,14,10.1
						c7.36,0.35,14.26-4.84,18.71-10.24c12.39-15.04,16.95-36,20.38-54.72c2.19-11.98,4.35-24.03,6.16-36.08
						c1.97-13.11,3.42-26.72,0.57-39.8c-0.85-3.89-6.25-3.36-7.36,0c-2.07,6.27-2.03,13.07-2.57,19.6
						c-0.69,8.36-1.28,16.72-1.74,25.09c-0.88,16.12-1.08,32.26-1.58,48.39c-0.69,22.42-1.22,45.46-5.94,67.47
						c-2.77,12.92-6.27,25.72-10.37,38.29c-4.6,14.09-10,28.49-18.37,40.83c-1.72,2.54-3.33,4.55-5.75,6.96
						c-1.05,1.04-2.24,2.06-2.38,2.16c-0.56,0.39-3.5,1.98-2.32,1.44c-0.75,0.34-1.81,0.76-2.52,1c1.54-0.52-0.61,0.13-0.88,0.17
						c-1.66,0.27,1.26-0.11-0.45,0.08c-2.88,0.32-0.08,0.26-2.08-0.02c-1.36-0.19-4.78-1.56-6.88-2.87
						c-2.73-1.7-6.38,1.75-4.52,4.52c3.72,5.54,8.67,9.23,14.23,9.95c6.45,0.84,12.08-2.39,16.73-6.59
						c11.05-9.98,17-26.25,21.93-39.87c5.33-14.71,9.53-29.86,12.96-45.12c4.07-18.13,5.39-36.58,6.03-55.14
						c0.67-19.37,0.23-38.75,0.62-58.13c0.19-9.34,0.57-18.68,1.09-28.01c0.27-4.82,0.65-9.64,0.91-14.46
						c0.25-4.61-0.17-9.25,1.21-13.72c-2.45,0-4.9,0-7.36,0c5.02,21.14-2.12,43.59-6.1,64.33c-3.2,16.7-7.37,34.15-15.82,49.06
						c-3.09,5.44-7.77,12.74-14.21,14.59c-3.67,1.06-5.77-1.59-7.67-5.25c-5.14-9.89-6.03-22.65-6.34-33.62
						c-0.71-25.9,8.29-51.76,4.87-77.63c-0.42-3.21-4.95-3.4-5.15,0c-0.09,1.53-0.17,3.05-0.21,4.58
						C88.15,261.03,91.46,261.39,92.08,259.29L92.08,259.29z"/>
				</g>
			</g>
			<g>
				<g>
					<path class="st1" d="M148.03,307.69c-1.91,17.82-3.03,36.62-0.83,54.44c0.67,5.41,1.7,15.44,8.48,16.76
						c10.18,1.98,15.39-15.34,17.36-22.19c1.96-6.86,3.22-13.87,4.59-20.86c2.23-11.37,4.65-22.74,4.03-34.4
						c-0.16-3.04-4.94-5.11-6.38-1.73c-3.96,9.32-4.55,20.59-5,30.57c-0.55,12.23-0.52,26.39,5.14,37.59
						c4.3,8.5,14.63,13.45,22.84,6.72c9.09-7.44,10.89-22.6,12.43-33.4c1.13-7.92,1.87-15.89,2.67-23.85
						c0.56-5.62,0.84-11.6,2.65-17c-2.23-0.3-4.47-0.6-6.7-0.91c-2.14,22.66-8.03,45.41-2.63,68.07c0.99,4.15,6.26,3.3,7.59,0
						c7.78-19.24,3.69-44.6,18.27-60.82c-2.07-0.27-4.13-0.53-6.2-0.8c3.65,5.16,1.98,13.41,1.32,19.27
						c-0.66,5.82-1.17,11.41-1.06,17.26c0.18,9.8-0.29,25.81,10.64,30.21c1.73,0.7,3.63-0.5,4.57-1.86
						c7.39-10.67,11.4-23.7,14.93-36.09c2.48-8.69,3.47-21.16,10.29-27.72c-2.3-1.34-4.61-2.68-6.91-4.03
						c-2.56,14.84-5.09,31.39-2.15,46.31c1.34,6.8,4.29,14.36,10.46,18.18c7.28,4.51,17.12,2.04,23.21-3.34
						c4.53-4.01,8.02-10.8,7.39-16.97c-0.71-6.95-5.13-11.18-7.71-17.35c-0.52,0.92-1.04,1.83-1.56,2.75
						c10.25-3.56,21.25-5.33,31.06-10.11c6.7-3.26,17.5-10.73,16.32-19.48c-1.31-9.69-14.03-12.37-21.88-10.39
						c-9.32,2.36-18.28,9.13-24.18,16.6c-10.16,12.88-13.6,29.67-2.22,42.98c6.23,7.28,15.55,9.84,24.71,11.01
						c11.83,1.52,24.1,0.12,35.71-2.34c25.79-5.47,48.4-19.3,68.71-35.62c1.8-1.45-0.54-4.46-2.47-3.2
						c-15.39,10.01-33.05,17.04-50.63,22.23c-17.32,5.11-35.75,8.64-53.82,5.93c-5.8-0.87-12.71-3.17-16.45-8.02
						c-3.37-4.38-3.94-10.67-3.24-15.96c0.88-6.7,4.08-12.25,8.8-17.02c5.71-5.76,15.68-12.75,24.28-10.3
						c15.45,4.41-3.51,16.98-10,19.6c-8.76,3.54-18.27,4.99-26.42,9.98c-0.97,0.59-1.51,2.05-0.8,3.06
						c4.34,6.2,13.02,10.93,8.41,19.74c-2.92,5.58-9.22,8.93-15.37,9.28c-6.69,0.37-10-4.22-11.72-10.19
						c-4.14-14.39-3.03-30.61-0.46-45.18c0.69-3.94-3.75-7.05-6.91-4.03c-7.31,6.98-9.1,18.81-11.51,28.15
						c-3.3,12.81-7.31,26.44-14.86,37.42c1.52-0.62,3.05-1.24,4.57-1.86c-3.69-1.48-4.06-10.08-4.34-13.26
						c-0.44-4.89-0.63-9.91-0.54-14.82c0.19-10.71,5.5-25.21-1.35-34.83c-1.38-1.94-4.37-2.84-6.2-0.8
						c-15.95,17.83-11.81,43.36-20.29,64.31c2.53,0,5.06,0,7.59,0c-5.16-21.65,0.13-44.22,1.85-65.97c0.32-4-5.54-4.39-6.7-0.91
						c-3.06,9.23-2.91,19.88-3.9,29.47c-1.2,11.68-2.12,24.74-7.29,35.49c-1.54,3.21-3.8,6.94-7.64,7.51
						c-3.78,0.56-6.69-1.91-8.52-4.94c-5.45-9.01-5.36-21.62-5.15-31.78c0.2-9.76,0.5-22.33,4.27-31.1
						c-2.13-0.58-4.25-1.15-6.38-1.73c0.73,14.82-3.09,29.87-6.3,44.28c-1.35,6.06-2.88,12.21-5.38,17.91
						c-0.99,2.26-2.16,4.62-3.8,6.49c-0.68,0.77-2.37,1.99-2.4,2c0.32-0.06,0.09,0.27-0.31-0.53c-0.57-1.12-1.03-2.14-1.39-3.35
						c-1.08-3.6-1.5-7.4-1.82-11.13c-0.8-9.29-0.71-18.67-0.42-27.99c0.22-7.14,0.54-14.31,1.23-21.43
						C154.61,303.71,148.45,303.77,148.03,307.69L148.03,307.69z"/>
				</g>
			</g>
		</g>
	</g>
</g>
</svg>
