<?xml version="1.0" encoding="utf-8"?>
<!-- Generator: Adobe Illustrator 24.0.2, SVG Export Plug-In . SVG Version: 6.00 Build 0)  -->
<svg version="1.1" id="Calque_1" xmlns="http://www.w3.org/2000/svg" xmlns:xlink="http://www.w3.org/1999/xlink" x="0px" y="0px"
	 viewBox="0 0 714.7 552.3" style="enable-background:new 0 0 714.7 552.3;" xml:space="preserve">
<style type="text/css">
	.st0{fill:#B752B0;}
	.st1{opacity:0.15;fill:none;stroke:#FFFFFF;stroke-width:80;stroke-linecap:round;stroke-linejoin:round;stroke-miterlimit:10;}
	.st2{opacity:0.1;fill:none;stroke:#FFFFFF;stroke-width:80;stroke-linecap:round;stroke-linejoin:round;stroke-miterlimit:10;}
	.st3{fill:#010202;}
</style>
<g id="Calque_2_1_">
</g>
<g id="Calque_1_1_">
	<g>
		<circle class="st0" cx="357.4" cy="276.2" r="227.7"/>
		<path class="st1" d="M354,119.9c0,0-152.1,9-151.1,191.3"/>
		<path class="st2" d="M416.2,405.4c0,0,45.9,10.7,73.4-72.8"/>
		<g>
			<g>
				<g>
					<path class="st3" d="M195.6,135.1c-14.4,42.7-7,87.7-8.9,131.7c2.4,0,4.7,0,7.1,0c-0.8-23.8-2.4-47.8-4.4-71.6
						c-0.6-7.5-1.5-15-1.7-22.6c-0.1-6.8-0.6-16.3,4.3-21.7c-2-0.5-4-1.1-6-1.6c10.2,27.3,18.9,55.1,29.3,82.2
						c7.4,19.3,14.6,41.1,31.6,54.2c1.1,0.9,3.1,0.7,4.2,0c7.9-4.8,8.3-16.3,8.4-24.6c0.1-12-1.2-24.2-2.1-36.1
						c-2.3-31-5.9-62.8,0.8-93.5c3.4-15.8,9.3-31.3,16.6-45.7c1.6-3-2.4-6.5-4.9-3.8c-19.1,20.4-24.9,49.3-26.3,76.4
						c-1.6,30.1,2.6,60.9,5.8,90.8c0.6,5.3,1.2,10.7,1.2,16.1c0,3.9,0.2,10.9-3.7,13.3c1.4,0,2.8,0,4.2,0
						c-15.9-12.3-22.4-35-29.4-52.9c-10.2-25.9-19-52.2-28.7-78.2c-0.9-2.3-4.1-3.8-6-1.6c-10.4,11.6-6.3,32.4-5,46.4
						c2.3,24.8,2.9,49.8,4.8,74.6c0.3,4.5,7.4,4.6,7.1,0c-1.4-21.8-2.7-43.6-2.7-65.4c-0.1-22,1.5-44.2,8.2-65.3
						C200,133.8,196.4,132.8,195.6,135.1L195.6,135.1z"/>
				</g>
			</g>
			<g>
				<g>
					<path class="st3" d="M272.2,228.5c4.6,9.6,14.1,4,19.2-1.7c6.6-7.4,11.6-16.3,16-25.1c3.1-6.2,5.8-12.8,8.1-19.4
						c2.9-8.4,7.6-20.1,4.7-29.1c-1.3-3.9-4.7-6.4-8.9-6.1c-5.1,0.4-8.7,5.1-11.3,9c-6.8,10.4-10.8,22.8-15.5,34
						c-6,14.2-11,29.1-11.4,44.6c-0.2,9.5,0.7,22.3,9,28.5c13,9.6,29.9-6.5,37.5-15.9c11.7-14.4,18.2-31.9,23.6-49.5
						c0.5-1.7-2.2-2.9-3-1.3c-5.6,12.1-11.8,23.8-19.7,34.7c-4.1,5.6-8.6,10.9-14,15.4c-3.9,3.3-9.6,7.8-14.9,8.5
						c-6.8,1-8.2-9.4-8.7-14.3c-1.2-10.3,0.1-20.3,2.9-30.2c3.4-12.1,8.6-23.8,13.6-35.3c2.1-4.8,4.3-9.6,7.2-14
						c1-1.6,2.2-3.2,3.6-4.5c0.5-0.4,1.9-0.9,0.9-1c-0.4,0,0-0.1,0.1,0.9c0.1,1.7,0,3.4-0.3,5.1c-0.7,4.2-1.9,8.3-3.3,12.3
						c-2.1,6.3-4.8,13.5-7.2,18.9c-2.9,6.5-6.4,12.7-10.1,18.7c-2.3,3.8-4.7,7.7-7.8,10.9c-0.9,0.9-2.4,2-2.9,2.3
						c-0.8,0.5-0.1-0.3,0.3,0.1c0.7,0.6-0.3-0.9-0.3-0.9C277.2,219,269.8,223.4,272.2,228.5L272.2,228.5z"/>
				</g>
			</g>
			<g>
				<g>
					<path class="st3" d="M357.3,134c-0.3-2.4-0.8-4.7-1.5-7c-0.6-2.1-3.4-2.4-4.5-0.6c-4.8,7.7-5.5,17.1-7.2,25.9
						c-2.4,12.1-5.1,24.2-7.2,36.4c-1.9,11.4-3.3,22.9-3.8,34.5c-0.4,9.4-2.4,20.5,1.8,29.3c1.1,2.3,4.3,2.8,6.3,1.6
						c8.4-4.9,11.3-17.1,14-25.6c4.1-13.2,9.1-26.1,13.8-39.2c5.9-15.9,11.4-32.1,19-47.3c7.1-14.1,14-27.9,18.7-43
						c1-3.4-4.4-5.8-5.9-2.5c-9.4,21.4-17.6,43.2-26.8,64.7c-7.7,18.1-12.2,37.3-23.4,53.7c2.4,1,4.7,2,7.1,3
						c0.9-2.9,1.5-5.9,2.4-8.9c0.4-1.2,0.6-0.6-0.3-0.8c0.6,0.1,1,0.6,1.3,1.1c0.8,1.4,1.2,2.9,1.6,4.4c1.7,7,2.7,13.8,5.3,20.6
						c6.6,16.8,16.8,33.3,32.9,42.4c3,1.7,6.2-2.3,3.7-4.8c-15.1-14.7-27.5-33.4-33.5-53.7c-1.6-5.2-3.2-14.2-9.3-16.2
						c-7.6-2.5-9,8-11.1,12.8c-1.6,3.6,3,8.4,6.1,4.7c12.5-14.9,15.2-35.6,22.3-53.2c9-22.3,17.8-44.7,27.4-66.7
						c-2-0.8-3.9-1.7-5.9-2.5c-4.4,14.3-13.3,27.1-20.2,40.2c-7.4,14-12.7,28.8-18.2,43.7c-4.9,13.2-10.3,26.4-14.4,39.9
						c-1.4,4.8-2.8,9.6-4.6,14.3c-1.4,3.5-3.1,8.7-6.6,10.8c2.1,0.6,4.2,1.1,6.3,1.6c-1.9-4.1-1.3-9-1.1-13.4
						c0.2-4.7,0.1-9.4,0.3-14.2c0.5-10.9,1.6-21.7,3-32.5c1.4-11,3.4-21.9,5-32.9c1.3-8.6,1.4-18.3,5.5-26.1c-1.5-0.2-3-0.4-4.5-0.6
						c0.8,2.1,1.4,4.1,1.7,6.3C353.1,137.2,357.6,136.6,357.3,134L357.3,134z"/>
				</g>
			</g>
			<g>
				<g>
					<path class="st3" d="M407.9,173.5c0.3-0.4,0.6-0.7,0.9-1.1c1-1.9-1-3.6-2.8-2.8c-2,0.9-2.4,3.6-3.1,5.5
						c-1.6,3.9-2.7,7.7-3.7,11.8c-1.8,7.3-3.2,14.6-4.1,22.1c-1.6,13.2-1.9,27.7,2.5,40.4c3.2,9.4,10.6,19.8,21.9,16.8
						c10.2-2.7,15.4-14,18.3-23.2c3.7-11.8,5.7-24.6,4.7-37c-0.9-11.2-4.2-24.6-13-32.4c-6.6-5.8-16.9-6.5-22.8,0.7
						c-6.2,7.4-0.8,16,6.8,19.5C436,204.1,460,179,474.7,165c-2.2-0.9-4.4-1.8-6.5-2.7c-0.4,7.7-5,14.9-7.7,21.9
						c-3.9,10-7.1,20.4-10.1,30.7c-2.1,7.3-4.7,14.6-6.3,22.1c-1.4,6.4-2.3,13.9,1.5,19.7c1.5,2.2,4.2,2.6,6.2,0.8
						c7.1-6.4,9.9-16.2,12.5-25.1c3.6-12.2,7.1-24.3,10.3-36.6c3.1-12.1,5.9-24.2,8.4-36.4c2.5-12.5,5.1-24.9,9.5-36.9
						c-2.4-0.7-4.9-1.3-7.3-2c-2,9.4-4.3,18.9-5.5,28.5c-1.2,9.3-1.8,18.6-2.3,28c-1,19.1-1,38.2-0.4,57.3
						c0.6,17.6,1.1,35.3,2.5,52.9c1.4,17.8,3.5,35.1,11.6,51.3c2.3,4.6,10,3.5,11.1-1.5c1.1-5.3,0.4-10.2-0.8-15.4
						c-1.3-6-2.6-11.7-4.8-17.5c-4.1-10.9-9.5-21.4-15.6-31.3c-6.4-10.3-15.3-20.3-27-24.5c-3.2-1.1-8-2.3-10.2,1.1
						c-2.3,3.6,0.8,8.7,3.5,11.2c7.1,6.8,19,7.4,28.1,7.9c13.1,0.7,26.1,0.2,39.1-1.8c34.3-5.4,68-15.8,100-28.8
						c17.7-7.2,34.7-15.4,51.5-24.4c16.3-8.6,30-21.9,47-29c2.6-1.1,1.7-5.2-1.2-4.3c-13.1,3.9-24.4,11.5-36.3,18
						c-12.5,6.9-25.5,12.9-38.7,18.3c-27,11-54.4,21.4-82.6,28.9c-25.5,6.8-51.3,12.6-77.8,12.6c-4.3,0-8.6-0.2-12.9-0.7
						c-3.6-0.4-8.5-0.7-11.5-3.1c-0.3-0.3-2-2.3-1.9-2.3c-0.4,0.6-0.8,1.3-1.2,2c0.6,0,1.2,0.1,1.8,0.2c1.6,0.6,3.3,0.8,5,1.4
						c6.6,2.5,11.9,7.1,16,12.7c6.9,9.2,11.7,20.4,15.7,31.1c3.8,10.1,8.6,22.6,3.5,33c3.7,0.5,7.4,1,11.1,1.5
						c-7.2-33-9.2-66.9-12.1-100.4c-1.6-18.1-2.8-36.3-2.8-54.5c0-18.6,1.2-38.2,5.2-56.3c1.1-4.8-5.6-6.6-7.3-2
						c-8.3,22.4-11.3,46.5-17.2,69.6c-3.1,12-6.3,23.9-9.9,35.7c-2.7,8.9-4.6,19.7-11.9,26.2c2.1,0.3,4.1,0.5,6.2,0.8
						c-3.6-5.5-0.8-13.8,0.8-19.6c2.2-7.9,4.6-15.7,7-23.6c2.8-9,5.5-18.1,9.2-26.7c2.8-6.6,6.1-13.3,6.5-20.6
						c0.2-3.4-4.3-4.9-6.5-2.7c-11.3,10.9-23.9,23.9-39.5,28.3c-3.8,1.1-7.8,1.4-11.7,0.3c-3.1-0.9-7.9-3.1-8-7
						c0-2.7,2.4-4.8,4.7-5.7c4.1-1.6,8.4,0.2,11.3,3.1c13.8,13.8,10.8,38.8,6,55.7c-2.1,7.4-4.9,16.1-10.9,21.4
						c-8.1,7.1-13.9-2.7-16.3-9.7c-3.7-10.7-4-22.4-3.3-33.5c0.4-6.9,1.4-13.7,2.8-20.5c0.6-3.2,1.4-6.4,2.1-9.6
						c0.2-0.9,0.4-1.6,0.5-2.5c0.1-0.4,0.7-6.6,1-6.9c-1-0.8-2-1.5-3-2.3c-0.2,0.2-0.3,0.5-0.4,0.8
						C403.7,173.8,406.5,175.5,407.9,173.5L407.9,173.5z"/>
				</g>
			</g>
			<g>
				<g>
					<path class="st3" d="M221.8,307.8c0.4-1.5,0.9-3,1.4-4.4c-1.7-0.2-3.4-0.5-5.1-0.7c-0.9,15-3.1,29.5-5.7,44.3
						c-1.9,11-4.1,22.1-4.1,33.4c0,13,1.3,28,7.7,39.6c2.9,5.3,7.7,9.8,14,10.1c7.4,0.4,14.3-4.8,18.7-10.2
						c12.4-15,16.9-36,20.4-54.7c2.2-12,4.4-24,6.2-36.1c2-13.1,3.4-26.7,0.6-39.8c-0.9-3.9-6.3-3.4-7.4,0c-2.1,6.3-2,13.1-2.6,19.6
						c-0.7,8.4-1.3,16.7-1.7,25.1c-0.9,16.1-1.1,32.3-1.6,48.4c-0.7,22.4-1.2,45.5-5.9,67.5c-2.8,12.9-6.3,25.7-10.4,38.3
						c-4.6,14.1-10,28.5-18.4,40.8c-1.7,2.5-3.3,4.5-5.8,7c-1.1,1-2.2,2.1-2.4,2.2c-0.6,0.4-3.5,2-2.3,1.4c-0.8,0.3-1.8,0.8-2.5,1
						c1.5-0.5-0.6,0.1-0.9,0.2c-1.7,0.3,1.3-0.1-0.4,0.1c-2.9,0.3-0.1,0.3-2.1,0c-1.4-0.2-4.8-1.6-6.9-2.9c-2.7-1.7-6.4,1.8-4.5,4.5
						c3.7,5.5,8.7,9.2,14.2,10c6.4,0.8,12.1-2.4,16.7-6.6c11.1-10,17-26.3,21.9-39.9c5.3-14.7,9.5-29.9,13-45.1
						c4.1-18.1,5.4-36.6,6-55.1c0.7-19.4,0.2-38.8,0.6-58.1c0.2-9.3,0.6-18.7,1.1-28c0.3-4.8,0.6-9.6,0.9-14.5
						c0.3-4.6-0.2-9.3,1.2-13.7c-2.5,0-4.9,0-7.4,0c5,21.1-2.1,43.6-6.1,64.3c-3.2,16.7-7.4,34.1-15.8,49.1
						c-3.1,5.4-7.8,12.7-14.2,14.6c-3.7,1.1-5.8-1.6-7.7-5.3c-5.1-9.9-6-22.6-6.3-33.6c-0.7-25.9,8.3-51.8,4.9-77.6
						c-0.4-3.2-4.9-3.4-5.1,0c-0.1,1.5-0.2,3-0.2,4.6C217.8,309.5,221.1,309.9,221.8,307.8L221.8,307.8z"/>
				</g>
			</g>
			<g>
				<g>
					<path class="st3" d="M277.7,356.2c-1.9,17.8-3,36.6-0.8,54.4c0.7,5.4,1.7,15.4,8.5,16.8c10.2,2,15.4-15.3,17.4-22.2
						c2-6.9,3.2-13.9,4.6-20.9c2.2-11.4,4.6-22.7,4-34.4c-0.2-3-4.9-5.1-6.4-1.7c-4,9.3-4.6,20.6-5,30.6
						c-0.6,12.2-0.5,26.4,5.1,37.6c4.3,8.5,14.6,13.5,22.8,6.7c9.1-7.4,10.9-22.6,12.4-33.4c1.1-7.9,1.9-15.9,2.7-23.9
						c0.6-5.6,0.8-11.6,2.6-17c-2.2-0.3-4.5-0.6-6.7-0.9c-2.1,22.7-8,45.4-2.6,68.1c1,4.1,6.3,3.3,7.6,0
						c7.8-19.2,3.7-44.6,18.3-60.8c-2.1-0.3-4.1-0.5-6.2-0.8c3.6,5.2,2,13.4,1.3,19.3c-0.7,5.8-1.2,11.4-1.1,17.3
						c0.2,9.8-0.3,25.8,10.6,30.2c1.7,0.7,3.6-0.5,4.6-1.9c7.4-10.7,11.4-23.7,14.9-36.1c2.5-8.7,3.5-21.2,10.3-27.7
						c-2.3-1.3-4.6-2.7-6.9-4c-2.6,14.8-5.1,31.4-2.1,46.3c1.3,6.8,4.3,14.4,10.5,18.2c7.3,4.5,17.1,2,23.2-3.3c4.5-4,8-10.8,7.4-17
						c-0.7-7-5.1-11.2-7.7-17.4c-0.5,0.9-1,1.8-1.6,2.8c10.3-3.6,21.3-5.3,31.1-10.1c6.7-3.3,17.5-10.7,16.3-19.5
						c-1.3-9.7-14-12.4-21.9-10.4c-9.3,2.4-18.3,9.1-24.2,16.6c-10.2,12.9-13.6,29.7-2.2,43c6.2,7.3,15.5,9.8,24.7,11
						c11.8,1.5,24.1,0.1,35.7-2.3c25.8-5.5,48.4-19.3,68.7-35.6c1.8-1.5-0.5-4.5-2.5-3.2c-15.4,10-33,17-50.6,22.2
						c-17.3,5.1-35.8,8.6-53.8,5.9c-5.8-0.9-12.7-3.2-16.5-8c-3.4-4.4-3.9-10.7-3.2-16c0.9-6.7,4.1-12.3,8.8-17
						c5.7-5.8,15.7-12.8,24.3-10.3c15.5,4.4-3.5,17-10,19.6c-8.8,3.5-18.3,5-26.4,10c-1,0.6-1.5,2-0.8,3.1c4.3,6.2,13,10.9,8.4,19.7
						c-2.9,5.6-9.2,8.9-15.4,9.3c-6.7,0.4-10-4.2-11.7-10.2c-4.1-14.4-3-30.6-0.5-45.2c0.7-3.9-3.8-7-6.9-4
						c-7.3,7-9.1,18.8-11.5,28.1c-3.3,12.8-7.3,26.4-14.9,37.4c1.5-0.6,3.1-1.2,4.6-1.9c-3.7-1.5-4.1-10.1-4.3-13.3
						c-0.4-4.9-0.6-9.9-0.5-14.8c0.2-10.7,5.5-25.2-1.4-34.8c-1.4-1.9-4.4-2.8-6.2-0.8c-15.9,17.8-11.8,43.4-20.3,64.3
						c2.5,0,5.1,0,7.6,0c-5.2-21.6,0.1-44.2,1.9-66c0.3-4-5.5-4.4-6.7-0.9c-3.1,9.2-2.9,19.9-3.9,29.5c-1.2,11.7-2.1,24.7-7.3,35.5
						c-1.5,3.2-3.8,6.9-7.6,7.5c-3.8,0.6-6.7-1.9-8.5-4.9c-5.4-9-5.4-21.6-5.1-31.8c0.2-9.8,0.5-22.3,4.3-31.1
						c-2.1-0.6-4.3-1.1-6.4-1.7c0.7,14.8-3.1,29.9-6.3,44.3c-1.4,6.1-2.9,12.2-5.4,17.9c-1,2.3-2.2,4.6-3.8,6.5
						c-0.7,0.8-2.4,2-2.4,2c0.3-0.1,0.1,0.3-0.3-0.5c-0.6-1.1-1-2.1-1.4-3.4c-1.1-3.6-1.5-7.4-1.8-11.1c-0.8-9.3-0.7-18.7-0.4-28
						c0.2-7.1,0.5-14.3,1.2-21.4C284.3,352.2,278.1,352.3,277.7,356.2L277.7,356.2z"/>
				</g>
			</g>
		</g>
	</g>
</g>
</svg>
