<svg xmlns="http://www.w3.org/2000/svg" id="svg186" width="534.431" height="471.59" version="1.1" viewBox="0 0 141.401 124.775"><g id="layer1" transform="translate(-46.781 -38.504)"><g id="g885" transform="matrix(.26458 0 0 .26458 -.872 17.064)"><g id="g849"><g id="g817" style="fill:#fff"><g id="g815" style="fill:#fff"><path id="path813" d="M195.6 135.1c-14.4 42.7-7 87.7-8.9 131.7h7.1c-.8-23.8-2.4-47.8-4.4-71.6-.6-7.5-1.5-15-1.7-22.6-.1-6.8-.6-16.3 4.3-21.7-2-.5-4-1.1-6-1.6 10.2 27.3 18.9 55.1 29.3 82.2 7.4 19.3 14.6 41.1 31.6 54.2 1.1.9 3.1.7 4.2 0 7.9-4.8 8.3-16.3 8.4-24.6.1-12-1.2-24.2-2.1-36.1-2.3-31-5.9-62.8.8-93.5 3.4-15.8 9.3-31.3 16.6-45.7 1.6-3-2.4-6.5-4.9-3.8-19.1 20.4-24.9 49.3-26.3 76.4-1.6 30.1 2.6 60.9 5.8 90.8.6 5.3 1.2 10.7 1.2 16.1 0 3.9.2 10.9-3.7 13.3h4.2c-15.9-12.3-22.4-35-29.4-52.9-10.2-25.9-19-52.2-28.7-78.2-.9-2.3-4.1-3.8-6-1.6-10.4 11.6-6.3 32.4-5 46.4 2.3 24.8 2.9 49.8 4.8 74.6.3 4.5 7.4 4.6 7.1 0-1.4-21.8-2.7-43.6-2.7-65.4-.1-22 1.5-44.2 8.2-65.3.6-2.4-3-3.4-3.8-1.1z" class="st3" style="fill:#fff"/></g></g><g id="g823" style="fill:#fff"><g id="g821" style="fill:#fff"><path id="path819" d="M272.2 228.5c4.6 9.6 14.1 4 19.2-1.7 6.6-7.4 11.6-16.3 16-25.1 3.1-6.2 5.8-12.8 8.1-19.4 2.9-8.4 7.6-20.1 4.7-29.1-1.3-3.9-4.7-6.4-8.9-6.1-5.1.4-8.7 5.1-11.3 9-6.8 10.4-10.8 22.8-15.5 34-6 14.2-11 29.1-11.4 44.6-.2 9.5.7 22.3 9 28.5 13 9.6 29.9-6.5 37.5-15.9 11.7-14.4 18.2-31.9 23.6-49.5.5-1.7-2.2-2.9-3-1.3-5.6 12.1-11.8 23.8-19.7 34.7-4.1 5.6-8.6 10.9-14 15.4-3.9 3.3-9.6 7.8-14.9 8.5-6.8 1-8.2-9.4-8.7-14.3-1.2-10.3.1-20.3 2.9-30.2 3.4-12.1 8.6-23.8 13.6-35.3 2.1-4.8 4.3-9.6 7.2-14 1-1.6 2.2-3.2 3.6-4.5.5-.4 1.9-.9.9-1-.4 0 0-.1.1.9.1 1.7 0 3.4-.3 5.1-.7 4.2-1.9 8.3-3.3 12.3-2.1 6.3-4.8 13.5-7.2 18.9-2.9 6.5-6.4 12.7-10.1 18.7-2.3 3.8-4.7 7.7-7.8 10.9-.9.9-2.4 2-2.9 2.3-.8.5-.1-.3.3.1.7.6-.3-.9-.3-.9-2.4-5.1-9.8-.7-7.4 4.4z" class="st3" style="fill:#fff"/></g></g><g id="g829" style="fill:#fff"><g id="g827" style="fill:#fff"><path id="path825" d="M357.3 134c-.3-2.4-.8-4.7-1.5-7-.6-2.1-3.4-2.4-4.5-.6-4.8 7.7-5.5 17.1-7.2 25.9-2.4 12.1-5.1 24.2-7.2 36.4-1.9 11.4-3.3 22.9-3.8 34.5-.4 9.4-2.4 20.5 1.8 29.3 1.1 2.3 4.3 2.8 6.3 1.6 8.4-4.9 11.3-17.1 14-25.6 4.1-13.2 9.1-26.1 13.8-39.2 5.9-15.9 11.4-32.1 19-47.3 7.1-14.1 14-27.9 18.7-43 1-3.4-4.4-5.8-5.9-2.5-9.4 21.4-17.6 43.2-26.8 64.7-7.7 18.1-12.2 37.3-23.4 53.7 2.4 1 4.7 2 7.1 3 .9-2.9 1.5-5.9 2.4-8.9.4-1.2.6-.6-.3-.8.6.1 1 .6 1.3 1.1.8 1.4 1.2 2.9 1.6 4.4 1.7 7 2.7 13.8 5.3 20.6 6.6 16.8 16.8 33.3 32.9 42.4 3 1.7 6.2-2.3 3.7-4.8-15.1-14.7-27.5-33.4-33.5-53.7-1.6-5.2-3.2-14.2-9.3-16.2-7.6-2.5-9 8-11.1 12.8-1.6 3.6 3 8.4 6.1 4.7 12.5-14.9 15.2-35.6 22.3-53.2 9-22.3 17.8-44.7 27.4-66.7-2-.8-3.9-1.7-5.9-2.5-4.4 14.3-13.3 27.1-20.2 40.2-7.4 14-12.7 28.8-18.2 43.7-4.9 13.2-10.3 26.4-14.4 39.9-1.4 4.8-2.8 9.6-4.6 14.3-1.4 3.5-3.1 8.7-6.6 10.8 2.1.6 4.2 1.1 6.3 1.6-1.9-4.1-1.3-9-1.1-13.4.2-4.7.1-9.4.3-14.2.5-10.9 1.6-21.7 3-32.5 1.4-11 3.4-21.9 5-32.9 1.3-8.6 1.4-18.3 5.5-26.1l-4.5-.6c.8 2.1 1.4 4.1 1.7 6.3.3 3 4.8 2.4 4.5-.2z" class="st3" style="fill:#fff"/></g></g><g id="g835"><g id="g833"><path id="path831" d="M407.9 173.5c.3-.4.6-.7.9-1.1 1-1.9-1-3.6-2.8-2.8-2 .9-2.4 3.6-3.1 5.5-1.6 3.9-2.7 7.7-3.7 11.8-1.8 7.3-3.2 14.6-4.1 22.1-1.6 13.2-1.9 27.7 2.5 40.4 3.2 9.4 10.6 19.8 21.9 16.8 10.2-2.7 15.4-14 18.3-23.2 3.7-11.8 5.7-24.6 4.7-37-.9-11.2-4.2-24.6-13-32.4-6.6-5.8-16.9-6.5-22.8.7-6.2 7.4-.8 16 6.8 19.5C436 204.1 460 179 474.7 165c-2.2-.9-4.4-1.8-6.5-2.7-.4 7.7-5 14.9-7.7 21.9-3.9 10-7.1 20.4-10.1 30.7-2.1 7.3-4.7 14.6-6.3 22.1-1.4 6.4-2.3 13.9 1.5 19.7 1.5 2.2 4.2 2.6 6.2.8 7.1-6.4 9.9-16.2 12.5-25.1 3.6-12.2 7.1-24.3 10.3-36.6 3.1-12.1 5.9-24.2 8.4-36.4 2.5-12.5 5.1-24.9 9.5-36.9-2.4-.7-4.9-1.3-7.3-2-2 9.4-4.3 18.9-5.5 28.5-1.2 9.3-1.8 18.6-2.3 28-1 19.1-1 38.2-.4 57.3.6 17.6 1.1 35.3 2.5 52.9 1.4 17.8 3.5 35.1 11.6 51.3 2.3 4.6 10 3.5 11.1-1.5 1.1-5.3.4-10.2-.8-15.4-1.3-6-2.6-11.7-4.8-17.5-4.1-10.9-9.5-21.4-15.6-31.3-6.4-10.3-15.3-20.3-27-24.5-3.2-1.1-8-2.3-10.2 1.1-2.3 3.6.8 8.7 3.5 11.2 7.1 6.8 19 7.4 28.1 7.9 13.1.7 26.1.2 39.1-1.8 34.3-5.4 68-15.8 100-28.8 17.7-7.2 34.7-15.4 51.5-24.4 16.3-8.6 30-21.9 47-29 2.6-1.1 1.7-5.2-1.2-4.3-13.1 3.9-24.4 11.5-36.3 18-12.5 6.9-25.5 12.9-38.7 18.3-27 11-54.4 21.4-82.6 28.9-25.5 6.8-51.3 12.6-77.8 12.6-4.3 0-8.6-.2-12.9-.7-3.6-.4-8.5-.7-11.5-3.1-.3-.3-2-2.3-1.9-2.3-.4.6-.8 1.3-1.2 2 .6 0 1.2.1 1.8.2 1.6.6 3.3.8 5 1.4 6.6 2.5 11.9 7.1 16 12.7 6.9 9.2 11.7 20.4 15.7 31.1 3.8 10.1 8.6 22.6 3.5 33l11.1 1.5c-7.2-33-9.2-66.9-12.1-100.4-1.6-18.1-2.8-36.3-2.8-54.5 0-18.6 1.2-38.2 5.2-56.3 1.1-4.8-5.6-6.6-7.3-2-8.3 22.4-11.3 46.5-17.2 69.6-3.1 12-6.3 23.9-9.9 35.7-2.7 8.9-4.6 19.7-11.9 26.2 2.1.3 4.1.5 6.2.8-3.6-5.5-.8-13.8.8-19.6 2.2-7.9 4.6-15.7 7-23.6 2.8-9 5.5-18.1 9.2-26.7 2.8-6.6 6.1-13.3 6.5-20.6.2-3.4-4.3-4.9-6.5-2.7-11.3 10.9-23.9 23.9-39.5 28.3-3.8 1.1-7.8 1.4-11.7.3-3.1-.9-7.9-3.1-8-7 0-2.7 2.4-4.8 4.7-5.7 4.1-1.6 8.4.2 11.3 3.1 13.8 13.8 10.8 38.8 6 55.7-2.1 7.4-4.9 16.1-10.9 21.4-8.1 7.1-13.9-2.7-16.3-9.7-3.7-10.7-4-22.4-3.3-33.5.4-6.9 1.4-13.7 2.8-20.5.6-3.2 1.4-6.4 2.1-9.6.2-.9.4-1.6.5-2.5.1-.4.7-6.6 1-6.9-1-.8-2-1.5-3-2.3-.2.2-.3.5-.4.8-.8 2.2 2 3.9 3.4 1.9z" class="st3" style="fill:#fff"/></g></g><g id="g841" style="fill:#fff"><g id="g839" style="fill:#fff"><path id="path837" d="M221.8 307.8c.4-1.5.9-3 1.4-4.4-1.7-.2-3.4-.5-5.1-.7-.9 15-3.1 29.5-5.7 44.3-1.9 11-4.1 22.1-4.1 33.4 0 13 1.3 28 7.7 39.6 2.9 5.3 7.7 9.8 14 10.1 7.4.4 14.3-4.8 18.7-10.2 12.4-15 16.9-36 20.4-54.7 2.2-12 4.4-24 6.2-36.1 2-13.1 3.4-26.7.6-39.8-.9-3.9-6.3-3.4-7.4 0-2.1 6.3-2 13.1-2.6 19.6-.7 8.4-1.3 16.7-1.7 25.1-.9 16.1-1.1 32.3-1.6 48.4-.7 22.4-1.2 45.5-5.9 67.5-2.8 12.9-6.3 25.7-10.4 38.3-4.6 14.1-10 28.5-18.4 40.8-1.7 2.5-3.3 4.5-5.8 7-1.1 1-2.2 2.1-2.4 2.2-.6.4-3.5 2-2.3 1.4-.8.3-1.8.8-2.5 1 1.5-.5-.6.1-.9.2-1.7.3 1.3-.1-.4.1-2.9.3-.1.3-2.1 0-1.4-.2-4.8-1.6-6.9-2.9-2.7-1.7-6.4 1.8-4.5 4.5 3.7 5.5 8.7 9.2 14.2 10 6.4.8 12.1-2.4 16.7-6.6 11.1-10 17-26.3 21.9-39.9 5.3-14.7 9.5-29.9 13-45.1 4.1-18.1 5.4-36.6 6-55.1.7-19.4.2-38.8.6-58.1.2-9.3.6-18.7 1.1-28 .3-4.8.6-9.6.9-14.5.3-4.6-.2-9.3 1.2-13.7h-7.4c5 21.1-2.1 43.6-6.1 64.3-3.2 16.7-7.4 34.1-15.8 49.1-3.1 5.4-7.8 12.7-14.2 14.6-3.7 1.1-5.8-1.6-7.7-5.3-5.1-9.9-6-22.6-6.3-33.6-.7-25.9 8.3-51.8 4.9-77.6-.4-3.2-4.9-3.4-5.1 0-.1 1.5-.2 3-.2 4.6 0 1.9 3.3 2.3 4 .2z" class="st3" style="fill:#fff"/></g></g><g id="g847" style="fill:#fff"><g id="g845" style="fill:#fff"><path id="path843" d="M277.7 356.2c-1.9 17.8-3 36.6-.8 54.4.7 5.4 1.7 15.4 8.5 16.8 10.2 2 15.4-15.3 17.4-22.2 2-6.9 3.2-13.9 4.6-20.9 2.2-11.4 4.6-22.7 4-34.4-.2-3-4.9-5.1-6.4-1.7-4 9.3-4.6 20.6-5 30.6-.6 12.2-.5 26.4 5.1 37.6 4.3 8.5 14.6 13.5 22.8 6.7 9.1-7.4 10.9-22.6 12.4-33.4 1.1-7.9 1.9-15.9 2.7-23.9.6-5.6.8-11.6 2.6-17-2.2-.3-4.5-.6-6.7-.9-2.1 22.7-8 45.4-2.6 68.1 1 4.1 6.3 3.3 7.6 0 7.8-19.2 3.7-44.6 18.3-60.8-2.1-.3-4.1-.5-6.2-.8 3.6 5.2 2 13.4 1.3 19.3-.7 5.8-1.2 11.4-1.1 17.3.2 9.8-.3 25.8 10.6 30.2 1.7.7 3.6-.5 4.6-1.9 7.4-10.7 11.4-23.7 14.9-36.1 2.5-8.7 3.5-21.2 10.3-27.7-2.3-1.3-4.6-2.7-6.9-4-2.6 14.8-5.1 31.4-2.1 46.3 1.3 6.8 4.3 14.4 10.5 18.2 7.3 4.5 17.1 2 23.2-3.3 4.5-4 8-10.8 7.4-17-.7-7-5.1-11.2-7.7-17.4-.5.9-1 1.8-1.6 2.8 10.3-3.6 21.3-5.3 31.1-10.1 6.7-3.3 17.5-10.7 16.3-19.5-1.3-9.7-14-12.4-21.9-10.4-9.3 2.4-18.3 9.1-24.2 16.6-10.2 12.9-13.6 29.7-2.2 43 6.2 7.3 15.5 9.8 24.7 11 11.8 1.5 24.1.1 35.7-2.3 25.8-5.5 48.4-19.3 68.7-35.6 1.8-1.5-.5-4.5-2.5-3.2-15.4 10-33 17-50.6 22.2-17.3 5.1-35.8 8.6-53.8 5.9-5.8-.9-12.7-3.2-16.5-8-3.4-4.4-3.9-10.7-3.2-16 .9-6.7 4.1-12.3 8.8-17 5.7-5.8 15.7-12.8 24.3-10.3 15.5 4.4-3.5 17-10 19.6-8.8 3.5-18.3 5-26.4 10-1 .6-1.5 2-.8 3.1 4.3 6.2 13 10.9 8.4 19.7-2.9 5.6-9.2 8.9-15.4 9.3-6.7.4-10-4.2-11.7-10.2-4.1-14.4-3-30.6-.5-45.2.7-3.9-3.8-7-6.9-4-7.3 7-9.1 18.8-11.5 28.1-3.3 12.8-7.3 26.4-14.9 37.4 1.5-.6 3.1-1.2 4.6-1.9-3.7-1.5-4.1-10.1-4.3-13.3-.4-4.9-.6-9.9-.5-14.8.2-10.7 5.5-25.2-1.4-34.8-1.4-1.9-4.4-2.8-6.2-.8-15.9 17.8-11.8 43.4-20.3 64.3h7.6c-5.2-21.6.1-44.2 1.9-66 .3-4-5.5-4.4-6.7-.9-3.1 9.2-2.9 19.9-3.9 29.5-1.2 11.7-2.1 24.7-7.3 35.5-1.5 3.2-3.8 6.9-7.6 7.5-3.8.6-6.7-1.9-8.5-4.9-5.4-9-5.4-21.6-5.1-31.8.2-9.8.5-22.3 4.3-31.1-2.1-.6-4.3-1.1-6.4-1.7.7 14.8-3.1 29.9-6.3 44.3-1.4 6.1-2.9 12.2-5.4 17.9-1 2.3-2.2 4.6-3.8 6.5-.7.8-2.4 2-2.4 2 .3-.1.1.3-.3-.5-.6-1.1-1-2.1-1.4-3.4-1.1-3.6-1.5-7.4-1.8-11.1-.8-9.3-.7-18.7-.4-28 .2-7.1.5-14.3 1.2-21.4.3-4.1-5.9-4-6.3-.1z" class="st3" style="fill:#fff"/></g></g></g></g></g><style id="style804" type="text/css">.st3{fill:#010202}</style></svg>