<svg xmlns="http://www.w3.org/2000/svg" viewBox="0 0 386.53 559.72"><title>logo-nky-2</title><path d="M160.64,127.64c-7.47,61.42-6.41,123.7-18.18,184.59l9.66-1.26c-5.43-9.38-2.45-23-3-33.44-.85-15.23-.53-30.51-.93-45.75-.39-15-1.39-30-1.31-45,0-6.43.25-12.86.29-19.28,0-5.65-.12-11.93,2.31-17.17h-7.83c5.85,9.91,7.87,21.67,10.25,32.79,2.66,12.37,6.2,24.43,9.79,36.56q11.81,39.82,26,78.81c9.43,26,18.44,52.24,28.3,78.12,5,13,8.43,27.49,16.65,39,3.47,4.85,8.36,9.08,14.7,7.17,5.95-1.8,9.06-7.92,11.11-13.29,4.83-12.62,5.33-26.93,6.05-40.28.48-8.88,1.85-17.7,2.68-26.56,1.28-13.69,2.29-27.42,3.2-41.14,1.87-28,3.22-55.94,5.94-83.84,3-30.72,7.25-61.32,13.1-91.63,5.89-30.58,13.81-60.71,21.2-90.95,1.79-7.37-8.5-9.88-11.14-3.07-19.05,49-27.74,102.33-34.2,154.33-6.61,53.27-7.35,106.77-11.47,160.22-1.09,14.05-1.33,28.22-2.63,42.24-.6,6.41-1.24,13.39-3.78,19.38a22.12,22.12,0,0,1-2.65,4.06c-.35.48-1.21.15-.11.44-.6-.16-.74-.26-1.51-1.1-8.47-9.24-11.46-23.69-15.67-35.18-8.85-24.18-17.79-48.32-26.55-72.54-10.19-28.17-20-56.39-28.77-85-3.9-12.7-7.78-25.34-10.69-38.31-2.69-12-5.67-24-11.93-34.74-1.6-2.73-6.35-3.16-7.83,0C136.37,157,138,170.88,137.71,183c-.36,16.28.72,32.54,1.09,48.82s.58,32.66.74,49c.12,11.78-2.49,24.71,3.45,35.55,2,3.72,8.91,3.32,9.67-1.26,10.19-62,8.61-125.09,15.46-187.41.52-4.79-6.91-4.7-7.48,0Z" transform="translate(-137.64 -28.02)" style="fill:#fff"/><path d="M299,130.72c-5,33.19-5,66.75-5.59,100.23-.63,34.27-3.05,68.45-3.65,102.73-.32,18.12,2.13,36.47.46,54.53-.6,6.41,7.84,7.05,10.88,3,4.43-6,5.17-13.51,6.05-20.67,1.09-8.82,3-17.58,4.58-26.31,3.5-18.83,7.5-37.56,11.07-56.37,3.48-18.39,7-36.8,11.52-55s9.74-36.32,14.84-54.39c5.75-20.37,11.27-41.15,19-60.87L356.28,116c-.88,17.26-7.48,34.42-11.83,51-4.85,18.48-10.69,36.69-16.31,54.95-5.76,18.72-12.31,37.19-18.47,55.77-2.85,8.62-5.44,17.31-8.59,25.83s-6.21,17.21-6.41,26.54c-.14,7,9.35,11.26,14.19,5.88,5.47-6.08,7.56-14.24,11.25-21.37,1.21-2.33,3-5.76,5.6-6.89a3.48,3.48,0,0,1,3.91.74c4.68,3.89,6.7,11.36,8.37,16.95a206.8,206.8,0,0,1,4.9,21.87c3.86,21,10.09,41.61,15.13,62.39,6.51,26.86,13.12,53.65,21.2,80.09,4.4,14.39,9,28.74,14.42,42.77,2.8,7.24,6,14.43,9.48,21.39,1.69,3.42,4,6.26,6.2,9.36,2.52,3.58,4.57,7.47,6.78,11.26,3.32,5.67,12.95,2,10.83-4.56-1.12-3.45-2.62-7-3.37-10.55-.79-3.74-1-7.58-1.95-11.28-1.91-7.18-4.54-14.38-7-21.4-4.75-13.62-9.59-27.2-14.05-40.92-8.93-27.46-17.37-55.11-25.6-82.79-6.33-21.28-12.89-42.51-18.37-64-3.58-14.07-7.77-32.6-20.47-41.39-7.61-5.27-16.87-3.16-22.95,3.4-6.38,6.87-10.18,17.22-16.07,23.2l14.19,5.88c.57-8.71,4.14-17.18,6.94-25.36,3-8.73,5.2-17.7,7.73-26.57,5.36-18.78,10.95-37.5,16.5-56.22,5.42-18.31,11-36.59,15.54-55.16,4-16.55,10.8-33.58,10.29-50.82-.2-6.77-9.83-8.17-11.81-1.6-5.3,17.6-11.18,35-16.21,52.69-5,17.44-9.65,34.95-14.37,52.46-9.66,35.85-15.37,72.75-22.61,109.14q-3.17,15.87-6.1,31.78c-1.32,7.12-.68,17.69-5.32,23.62l10,4.13c1.93-16.16.79-32.09.71-48.3-.08-16.8.72-33.63,1.18-50.42.47-17,1.42-33.92,1.54-50.91.13-16.58-.09-33.16.12-49.73.24-19,1.08-37.95,3.56-56.78.75-5.64-9.15-7-10-1.35Z" transform="translate(-137.64 -28.02)" style="fill:#fff"/><path d="M411.23,78.93c0-2.49-.13-5-.34-7.43-.43-5.22-7.89-5.32-8.19,0-1.05,18.62-.61,37.44-1.1,56.09s-1.15,37.57-1.35,56.36c-.2,18.57-.93,37.21-.13,55.78a351.78,351.78,0,0,0,4.6,41.44c1.72,10.61,4.76,22.44,13.44,29.57,10.8,8.88,24.16,5.53,33.7-3.38,10-9.33,17.39-22.5,23.9-34.35a282.65,282.65,0,0,0,19.51-45.14c13-38.35,17.72-78.54,28.7-117.37,1.62-5.73-7.35-9.92-9.9-4.18-5.7,12.84-8,26.5-10.34,40.26-2.66,15.86-6,31.63-8.84,47.45-3,16.4-5.72,32.85-8.59,49.27s-6.43,32.53-9.73,48.79c-6.46,31.83-12.92,63.65-20.32,95.28C449,418.3,440.12,448.78,432,479.49c-4.36,16.57-8.54,33.19-12.9,49.77s-8.69,33.21-15.08,49.18c-3.17,7.9,9.71,13.14,13.66,5.76,7.19-13.44,14-27.31,19.37-41.6s9.53-29.14,13.76-43.92c8.63-30.14,16.52-60.77,23.2-91.41,14-64.23,24.33-129.52,33.31-194.62,2.56-18.52,5.38-37,8.57-55.4,2.69-15.52,2.91-31.77,8.05-46.75l-10.45-2.88c-13.18,61.74-23,126.81-61.41,179-4.5,6.11-14.15,19.45-23.18,14.26-7.42-4.27-9.09-16.58-10.38-24.11a323.94,323.94,0,0,1-4.58-38c-.89-17.26-.45-34.57-.53-51.84-.1-19.45.4-38.88.41-58.33,0-19.21.22-39.18-3.1-58.17l-7.9,2.18c.73,2.39,1.34,4.79,1.9,7.22.83,3.64,6.53,2.82,6.48-.88Z" transform="translate(-137.64 -28.02)" style="fill:#fff"/></svg>